<?xml version="1.0" encoding="UTF-8"?>
<!DOCTYPE svg PUBLIC "-//W3C//DTD SVG 1.1//EN" "http://www.w3.org/Graphics/SVG/1.1/DTD/svg11.dtd">
<!-- Creator: CorelDRAW 2019 (64-Bit) -->
<svg xmlns="http://www.w3.org/2000/svg" xml:space="preserve" width="210mm" height="297mm" version="1.1" style="shape-rendering:geometricPrecision; text-rendering:geometricPrecision; image-rendering:optimizeQuality; fill-rule:evenodd; clip-rule:evenodd"
viewBox="0 0 21000 29700"
 xmlns:xlink="http://www.w3.org/1999/xlink"
 xmlns:xodm="http://www.corel.com/coreldraw/odm/2003">
 <defs>
  <style type="text/css">
   <![CDATA[
    .fil1 {fill:#958150}
    .fil0 {fill:#988350}
   ]]>
  </style>
 </defs>
 <g id="Слой_x0020_1">
  <metadata id="CorelCorpID_0Corel-Layer"/>
  <g id="_2423358557296">
   <path class="fil0" d="M3320.9 15910.89l152.97 383.29c257.7,585.21 467.33,931.29 823.34,1467.89l342.57 413.02c3.4,3.69 8.42,8.87 11.83,12.55l472.49 502.46c3.9,3.21 9.55,7.7 13.44,10.93 533.67,424.76 1077.7,928.99 1704.19,1203.96 243.29,106.78 564.14,286.43 802.18,416.85 -1329.63,428.87 -3460.06,1030.75 -4434.1,-387.04 -722.47,-1051.61 -416.69,-2732.53 12.08,-3845.96 33.73,-82.87 44.82,-110.68 99.01,-177.95zm400.15 -3597.71c28.89,-154.9 2.71,-515.55 434.39,-284.4 141.87,109.12 196.52,303.95 212.48,477.18 -10.34,160.57 -225.01,411.13 -323.29,562.4 -81.62,125.63 -254.4,425.72 -360.43,500 -100.19,70.2 -69.95,45.43 -69.9,-123.41 0.12,-399 35.06,-739.84 106.75,-1131.77zm8827.15 -5350.61c-240.04,-86.19 -258.81,-56.72 14.67,-198.62 966.3,-473.66 3124.77,-673.88 3961.71,128.21 939.36,1105.39 867.13,2656.45 352.76,3935.61 -258.15,641.99 -316.68,106.01 -476.4,-259.77l-50.41 -115.46c-300.21,-619.01 -845.13,-1405.61 -1342.81,-1881.27 -547.41,-523.19 -1146.85,-944.46 -1811.66,-1308.53 -217.07,-118.87 -418.36,-208.46 -647.86,-300.17zm-8155.06 -461.62c206.37,0 587.88,243.31 784.42,336.69l1892.78 909.99c312.35,125.9 459.06,265.44 740.67,-21.57l295.16 -289.8c3.53,-3.56 8.96,-8.34 12.5,-11.88l183.4 -182.2c3.55,-3.54 8.56,-8.74 12.02,-12.36 399.17,-414.7 944.71,-999.19 1580.2,-832.23 68.89,645.14 -328.43,1083.89 -769.41,1497.05 -5.24,4.77 -20.42,18.31 -25.66,23.09l-450.88 426.57c-46,53.48 -69.7,77.28 -118.63,125.11 -213.41,208.62 -189.8,368.32 -63.13,611.81l230.16 476.72c71.51,129.18 105.95,254.65 171.5,389.13 38.28,78.5 61.21,96.51 98.15,169.97 243.43,492.07 441.51,951.22 710.14,1437.57 75.12,136 159.51,332.98 -4.51,446.38 -120.08,83.02 -415.31,-404.37 -490.75,-502.89 -375.21,-490.06 -748.34,-980.37 -1125.57,-1469.54 -76.05,-103.6 -279.24,-431.6 -421.47,-431.6 -236.24,0 -259.99,53.57 -428.57,205.11 -3.73,3.36 -9,8.28 -12.69,11.68l-1497.33 1500.62c-13.81,13.99 -36.89,37.17 -49.08,48.42 -449.71,475.58 -140.12,898.69 -177.41,1482.52 -7.85,122.87 -55.2,251.59 -189.05,282.79 -96.14,22.4 -207.45,-534.87 -222,-600.95 -43.87,-199.13 -101.24,-414.48 -155.76,-611.71 -167.04,-589.83 -339.79,-466.05 -947.4,-661.21 -68.47,-21.99 -143.34,-29.63 -217.36,-50.72 -195.26,-55.62 -452.01,-85.69 -611.63,-192.61 235.78,-352.23 455.95,-149.22 1194.44,-121.61 478.54,17.88 339.72,-40.89 914.29,-572.36 66.12,-61.17 103.64,-120.31 178.12,-187.48l1024.87 -1022.51c268.21,-256.8 367.93,-490.97 27.45,-729.49 -55.53,-38.9 -96.88,-74.53 -148.85,-119.25l-1042.26 -785.71c-33.43,-27.28 1.95,4.65 -37.14,-35.98l-191.21 -150.02c-39.39,-26.64 -46.6,-33.92 -81.41,-64.83l-322.02 -238.55c-111.04,-81.28 -289.96,-273.37 -395.31,-311.51 16.82,-72.19 63.02,-170.65 146.22,-170.65zm2997.4 633.83c-85.04,0 -309.74,-114.91 -379.32,-156.87l-2061.23 -985.25c-69.56,-34.14 -126.27,-56.67 -201.88,-90.59 -340,-152.52 -466.32,-268.29 -739.3,19.39 -355.58,374.74 -937.35,678.38 -385.04,1105.36l174.11 142.75c4.01,3.13 9.83,7.38 13.85,10.52 193.61,150.48 369.56,309.58 576.48,447.18 305.15,202.93 1078.23,799.66 1335.46,1028.72 90.21,80.34 -14.9,27.96 82.88,63.36 -3.01,135.02 -51.76,134.95 -150.03,215.59 -99.02,81.27 -167.19,187.76 -257.88,278.34 -21.16,21.13 -30.64,27.76 -51.2,46.29l-38.16 34.97c-3.55,3.54 -8.55,8.74 -12.01,12.36 -99.35,103.68 -828.67,875.14 -952.87,875.14 -451.58,0 -842.41,-73.14 -1023.5,-73.14 -275.06,0 -391.04,149.42 -559.37,318.04l-286.2 274.39c-7.02,7.82 -32.91,37.89 -34.04,39.08 -3.45,3.64 -8.37,8.93 -11.91,12.46l-38.49 34.63c-169.39,143.57 -373.98,352.15 -231.11,580.32 79.75,127.38 355.59,186.69 503.37,227.93 553.27,154.39 552.79,55.16 405.06,649.42l-64.5 496.17c-10.67,219.91 -72.72,410.71 -72.72,658.6 11.78,354.44 8.29,687.84 65.25,1038.62 72.66,447.48 -3.6,452.58 -144.92,839.94 -10.48,28.72 -20.91,52.62 -33.42,80.45 -53.67,112.55 -65.56,134.4 -106.79,258.84 -436.52,1187.6 -802.57,2460.75 -495.44,3731.74 417.22,1726.58 2073.21,2268.79 3667.15,2117.99 894.87,-105.72 1761.37,-409.59 2581.82,-772.3 395.74,-178.97 710.24,-62.86 1131.21,-30.52 648.63,30.47 1175.14,15.47 1827.88,-130.82 448.27,-100.46 947.97,-257.23 1371.72,-434.99 44.08,-19.09 38.96,-20.44 82.75,-39.11 465.44,-198.45 599.99,-298.67 1003.09,-532.35l127.71 -91.65c4.14,-3.07 10.3,-6.87 14.47,-9.9 4.19,-3.04 10.47,-6.68 14.63,-9.74l28.46 -20.29c60.03,-51.97 17.29,-8.54 54.51,-67.37 1.62,-2.57 41.9,-74.09 43.66,-78.22 71.36,-168 -14.84,-438.38 -243.28,-438.38 -312.61,0 -456.99,195.91 -714.61,333.37l-945.95 443.26c-119.26,47.59 -871.15,359.57 -937.49,231.35 -114.61,-221.5 182.32,-722.05 -322.56,-1401.72 -34.37,-42.71 -88.6,-99.14 -132.44,-135.67 -39.34,-32.8 -43.96,-30.85 -84.92,-61.31 -0.95,-0.71 -33.38,-26.66 -40.67,-32.45 -104.2,-82.84 -308,-180.39 -446.27,-211.78 -711.33,-161.41 -1752.89,133.55 -2122.87,-192.26 -1.43,-1.25 -35.33,-35.85 -36.28,-36.84 -196.72,-205.7 -132.66,-514.73 -246.44,-752.97l-89.29 -178.84c-84.6,-123.14 -189.06,-195.21 -313.3,-271.66 -76.68,-47.19 -98.56,-57.07 -204.84,-87.61 -515.31,-131.33 -1104.21,114.9 -1396.65,-494.8 -222.53,-463.94 48.22,-1008.73 559.14,-1094.88 188.2,-31.73 267.44,-21.46 450.31,-108.79 231.16,-125.84 208.31,-354.52 282.96,-570.17 2.03,-5.85 4.15,-12.34 6.23,-18.14 18.42,-51.13 1.86,-26.41 27.77,-69.74 84.11,-140.62 259.3,-174.45 396.89,-166.22 395.33,23.66 798.15,0.39 1193.93,2.41 287.9,1.48 591.23,-62.27 859.41,66.32 136,65.21 241.34,151.46 322.35,286.98 261.76,437.84 19.55,1302.41 126.63,1847.96l107.3 282.7c59.75,94.32 88.27,133.29 185.06,204.92 93.12,68.91 143.23,119.17 275.54,138.79 968.13,111.7 1154.33,9.14 1131.79,1115.18 -5.26,258.34 22.88,643.19 379.12,608.78 343.95,-33.22 272.1,-514.42 276.18,-770.05 7.62,-478.65 -2.57,-767.85 -323.2,-1154.12 -236.98,-285.49 -489.75,-407.87 -855.84,-415.41 -197.02,-4.06 -293.75,-3.01 -486.24,-66.94 -66.44,-285.31 -24.68,-740.58 -24.35,-1072.64 0.09,-89.11 1.17,-176.02 -3.62,-264.78 -0.34,-6.23 -3.24,-55.45 -3.25,-56.33l-5.67 -176.62c-31.18,-204.14 -62.37,-273.19 -137.06,-425.26l-71.51 -123.49c-87.36,-144.52 -194.76,-269.6 -325.89,-380.95 -22.16,-18.81 -22.41,-19.05 -39.56,-33.57 -436.64,-237.24 -422.83,-282.35 -925.45,-314.82 -517.18,-33.41 -1040.64,-5.32 -1558.51,-3.77 -194.61,0 -417.37,37.94 -576.45,105.92l-49.04 24.08c-47.83,24.17 -69.8,32.74 -109.52,61.08 -26.73,19.07 -49.31,41.1 -78.91,67.32l-134.67 133.45c-3.48,3.6 -8.66,8.62 -12.11,12.26l-76.87 93.75c-85.1,127.2 -114.18,301.04 -222.09,411.66 -102.21,73.39 -339.15,106.86 -488.84,178.69 -276.71,132.79 -444.97,299.99 -601.79,564.72 -381.99,644.87 -202.01,1534.01 433.67,1949.08 230.8,150.7 473.7,228.45 747.61,249.02 123.33,6.68 166.25,19.78 267.24,25.2 90.63,4.85 206.92,-9.1 293.04,-0.62 187.2,18.44 204.36,169.93 220.57,364.43 35.67,428.37 348.02,826.52 720.36,1010.21 796.15,333.27 2135.33,-162 2483.81,399.14 143.64,231.29 134.86,704.47 74.98,963.69 -25.72,111.29 -12.39,92.81 -169.51,126.29 -985.63,177.29 -2461.57,-216.84 -3339.3,-682 -90.68,-48.06 -180.84,-97.31 -271.01,-146.33 -84.4,-45.85 -134.03,-80.62 -216.36,-124.85 -246.5,-132.47 -526.84,-346.53 -737.9,-529.49l-675.52 -665.02c-18.85,-22.62 -28.05,-38.71 -41.46,-56.04l-54.45 -67.42c-3.06,-4.13 -7.15,-10.04 -10.14,-14.23 -3.02,-4.21 -6.83,-10.33 -9.81,-14.57 -54.55,-77.75 -103.26,-118.22 -164.67,-200.94 -26.35,-35.49 -46.51,-61.65 -73.21,-97.41l-355.41 -546.44c-41.35,-63.67 -28.16,-30.98 -65.34,-105.29 -22.77,-45.5 -45.1,-87.65 -65.08,-129.91l-438.05 -1000.11c-264.51,-880.79 -163.32,-735.65 290.22,-1509.6 28.92,-49.36 359.67,-653.04 414.16,-567.36 123.13,224.45 168.7,768.76 541.49,646.4 182.78,-60 454.03,-380.86 600.46,-523.3 161.6,-144.35 332.93,-309.9 383.31,-528.18 26.03,-178.95 4.31,-415.2 -3.4,-602.05 -1.89,-73.34 -4.59,-105.37 -17.9,-197.05 -34.01,-234.19 -83.92,-363.25 79.03,-538.84l48.53 -48.97c3.56,-3.52 8.82,-8.47 12.38,-12 3.55,-3.53 8.8,-8.49 12.34,-12.03 3.54,-3.54 8.73,-8.56 12.24,-12.13l1154.49 -1161.01c34.83,-32.48 -1.77,-47.93 73.93,-47.93 158.36,37.54 526.09,630.3 671.46,805.28 288.78,347.63 1051.81,1470.45 1272.73,1590.08 319.77,173.16 559.77,-273.06 750.16,-453.21 237.43,-224.66 407.17,-304.14 269.76,-690.44 -70.73,-198.85 -254.11,-522.08 -354.72,-729.64 -227.06,-468.46 -440.74,-943.63 -661.52,-1415.11 -91.78,-195.7 -183.56,-391.39 -275.34,-587.09 -48.38,-118.8 -17.46,-185.2 66.09,-266.61 3.62,-3.52 9.13,-8.16 12.74,-11.67l285.57 -299.42c51.65,-48.37 88.18,-85.39 139.03,-129.07 219.35,-185.95 1449.25,-944.23 1662.71,-954.88 282.43,-14.09 851.45,209.88 1118.74,327.82 46.18,20.98 74.74,28.94 121.61,48.99l170.75 72.97c46.07,20.69 26.29,14.04 64.76,32.72 495.37,238.74 1038.57,673.35 1487.09,1006.37 68.68,51 433.79,362.47 212.07,405.42 -112.74,21.83 -402.58,-0.74 -615.75,34.42 -573.49,94.57 -1056.46,433.47 -1299.43,966.73 -13.62,29.89 -27.39,58.45 -41.91,87.9 -190.86,376.32 -11.67,783.24 -345.68,848.73 -470.01,92.16 -747.85,133.62 -1060.55,596.76 -291.94,458.29 -298.75,1111.17 4.41,1565.78l347.1 359.73c475.11,305.5 814.78,231.41 1336.16,248.26 403.62,13.04 1726.41,75.35 2001.66,-154.56 270.06,-225.58 45.44,-492.01 -282.93,-546.78 -674.55,-112.52 -2427.02,223.89 -2811.09,-208.91 -86.34,-97.31 -94.37,-208.41 -103.85,-331.56 -1.4,-273.85 -23.88,-461.55 148.26,-657.68 145.88,-166.2 332.06,-141.34 541.3,-189.84 1105.48,-284.58 401.66,-1323.77 1262.58,-1784.99l115.85 -62.06c275.43,-128.52 1245.16,-204.85 1498.17,-60.05 539.72,379.32 1043.19,1995.34 1126.33,2676.29 153.05,1253.61 89.24,2158.57 -390.26,3362.45 -63.97,160.64 -132.22,312.92 -205.35,469.43 -328.42,689.69 227.77,794.8 481.27,493.66 390.03,-524.62 703.11,-1784.56 795,-2451.67 95.58,-693.97 75.69,-1099.47 11.6,-1784.04 -54.92,-586.68 238.64,-979.04 429.83,-1509.38 390.01,-1081.84 485.86,-1777.67 437.13,-2925.39 -13.88,-250.93 -154.06,-783.48 -287.15,-1016.23 -1126.62,-1970.3 -3162.23,-1816.03 -5056.11,-1182.15 -609.1,206.38 -932.07,358.06 -1494.83,630.56 -933.07,436.79 -289.43,-59.54 -494.06,-740.49 -172.89,-575.34 -1277.16,-245.8 -1650.33,-54.99 -228.89,117.03 -365.35,215.72 -571.88,360.8 -60.57,50.94 -84.87,75.24 -138.66,129.44l-660.63 655.55c-42.09,43.39 -82.3,81.98 -161.73,81.98z"/>
   <path class="fil1" d="M15042.43 18397.45c332.1,0 456.39,-350.26 287.03,-554.66 -208.68,-251.86 -576.65,-112.2 -598.29,218.4 -10.67,162.93 152.38,336.26 311.26,336.26z"/>
  </g>
 </g>
</svg>
